<svg width="50" height="50" viewBox="0 0 50 50" fill="none" xmlns="http://www.w3.org/2000/svg">
<rect width="50" height="50" rx="3.75" fill="#3EFFA2"/>
<path d="M13.7663 27.0415V25.925H10.685V31H11.845V29.1368H13.73V28.0202H11.845V27.0415H13.7663ZM15.5029 28.0202V27.375H14.4154V31H15.5029V29.3615C15.5029 28.6437 16.1409 28.4625 16.5904 28.535V27.3025C16.1336 27.3025 15.6479 27.5345 15.5029 28.0202ZM17.964 29.6225H20.5378C20.5668 29.4847 20.5813 29.3397 20.5813 29.1875C20.5813 28.0927 19.7983 27.2735 18.7398 27.2735C17.5943 27.2735 16.8113 28.1072 16.8113 29.1875C16.8113 30.2677 17.5798 31.1015 18.8195 31.1015C19.5083 31.1015 20.0448 30.8477 20.4 30.3547L19.53 29.8545C19.385 30.014 19.1313 30.13 18.834 30.13C18.4353 30.13 18.1018 29.9995 17.964 29.6225ZM17.9423 28.8105C18.0438 28.4407 18.3193 28.2377 18.7325 28.2377C19.0588 28.2377 19.385 28.39 19.501 28.8105H17.9423ZM22.1342 29.6225H24.7079C24.7369 29.4847 24.7514 29.3397 24.7514 29.1875C24.7514 28.0927 23.9684 27.2735 22.9099 27.2735C21.7644 27.2735 20.9814 28.1072 20.9814 29.1875C20.9814 30.2677 21.7499 31.1015 22.9897 31.1015C23.6784 31.1015 24.2149 30.8477 24.5702 30.3547L23.7002 29.8545C23.5552 30.014 23.3014 30.13 23.0042 30.13C22.6054 30.13 22.2719 29.9995 22.1342 29.6225ZM22.1124 28.8105C22.2139 28.4407 22.4894 28.2377 22.9027 28.2377C23.2289 28.2377 23.5552 28.39 23.6712 28.8105H22.1124ZM30.4795 25.925H29.3195L27.942 28.1797L26.5645 25.925H25.4045V31H26.5645V28.0492L27.8767 30.2025H28.0072L29.3195 28.0492V31H30.4795V25.925ZM33.9472 27.375V27.7157C33.708 27.4402 33.3527 27.2735 32.867 27.2735C31.9172 27.2735 31.1342 28.1072 31.1342 29.1875C31.1342 30.2677 31.9172 31.1015 32.867 31.1015C33.3527 31.1015 33.708 30.9347 33.9472 30.6592V31H35.0347V27.375H33.9472ZM33.0845 30.072C32.5842 30.072 32.2217 29.7312 32.2217 29.1875C32.2217 28.6437 32.5842 28.303 33.0845 28.303C33.5847 28.303 33.9472 28.6437 33.9472 29.1875C33.9472 29.7312 33.5847 30.072 33.0845 30.072ZM39.2763 31L37.9786 29.1585L39.2328 27.375H37.9858L37.3551 28.274L36.7243 27.375H35.4773L36.7316 29.1585L35.4338 31H36.6808L37.3551 30.043L38.0293 31H39.2763Z" fill="#151515"/>
<path d="M20.715 18.925H18.685V24H20.715C22.1143 24 23.18 22.898 23.18 21.4625C23.18 20.027 22.1143 18.925 20.715 18.925ZM20.715 22.8835H19.845V20.0415H20.715C21.5125 20.0415 22.0635 20.5925 22.0635 21.4625C22.0635 22.3325 21.5125 22.8835 20.715 22.8835ZM24.7675 22.6225H27.3412C27.3702 22.4847 27.3847 22.3397 27.3847 22.1875C27.3847 21.0927 26.6017 20.2735 25.5432 20.2735C24.3977 20.2735 23.6147 21.1072 23.6147 22.1875C23.6147 23.2677 24.3832 24.1015 25.623 24.1015C26.3117 24.1015 26.8482 23.8477 27.2035 23.3547L26.3335 22.8545C26.1885 23.014 25.9347 23.13 25.6375 23.13C25.2387 23.13 24.9052 22.9995 24.7675 22.6225ZM24.7457 21.8105C24.8472 21.4407 25.1227 21.2377 25.536 21.2377C25.8622 21.2377 26.1885 21.39 26.3045 21.8105H24.7457ZM30.1727 20.375L29.4187 22.6732L28.6647 20.375H27.4612L28.8024 24H30.0349L31.3762 20.375H30.1727Z" fill="#151515"/>
<rect x="7.75" y="14" width="2.5" height="2.5" fill="#151515"/>
<rect x="5.25" y="14" width="2.5" height="22" fill="#151515"/>
<rect x="7.75" y="33.5" width="2.5" height="2.5" fill="#151515"/>
<rect width="2.5" height="2.5" transform="matrix(-1 0 0 1 42 14)" fill="#151515"/>
<rect width="2.5" height="22" transform="matrix(-1 0 0 1 44.5 14)" fill="#151515"/>
<rect width="2.5" height="2.5" transform="matrix(-1 0 0 1 42 33.5)" fill="#151515"/>
</svg>
